<svg id="Online_Healthcare" height="512" viewBox="0 0 64 64" width="512" xmlns="http://www.w3.org/2000/svg" data-name="Online Healthcare"><path d="m3 11h46v50h-46z" fill="#365e7d"/><path d="m7 15h38v42h-38z" fill="#91d1f5"/><path d="m35 8h-3a6.1 6.1 0 0 0 -12 0h-3a4 4 0 0 0 -4 4v4h26v-4a4 4 0 0 0 -4-4zm-9 3a2 2 0 1 1 2-2 2.006 2.006 0 0 1 -2 2z" fill="#c6c5ca"/><path d="m31 23h-3v-3h-4v3h-3v4h3v3h4v-3h3z" fill="#ec455a"/><path d="m61 61v-6.54a5.991 5.991 0 0 0 -4.28-5.74l-2.16-.65a5.007 5.007 0 0 1 -3.56-4.79v-5.28h-8v5.28a5.007 5.007 0 0 1 -3.56 4.79l-2.16.65a5.991 5.991 0 0 0 -4.28 5.74v6.54z" fill="#f2f2f2"/><path d="m41.34 47a4.986 4.986 0 0 0 1.66-3.72v-5.28h8v5.28a4.986 4.986 0 0 0 1.66 3.72l-5.66 2z" fill="#ffcbbe"/><path d="m47 43a8 8 0 0 1 -8-8v-11l16 2v9a8 8 0 0 1 -8 8z" fill="#ffddce"/><path d="m37 30h2a0 0 0 0 1 0 0v5a0 0 0 0 1 0 0h-2a2 2 0 0 1 -2-2v-1a2 2 0 0 1 2-2z" fill="#ffcbbe"/><path d="m57 30h2a0 0 0 0 1 0 0v5a0 0 0 0 1 0 0h-2a2 2 0 0 1 -2-2v-1a2 2 0 0 1 2-2z" fill="#ffcbbe" transform="matrix(-1 0 0 -1 114 65)"/><path d="m50 61h-6l2-8h2z" fill="#2281c7"/><path d="m43 49h8l-3 4h-2z" fill="#235182"/><path d="m39.74 47.96 3.26 4.04 4-3-5.57-2.09-.01.01a4.757 4.757 0 0 1 -1.68 1.04z" fill="#2281c7"/><path d="m52.57 46.91-5.57 2.09 4 3 3.26-4.04a4.757 4.757 0 0 1 -1.68-1.04z" fill="#2281c7"/><circle cx="56" cy="54" fill="#acabb1" r="2"/><path d="m35 19h14a6 6 0 0 1 6 6v3a0 0 0 0 1 0 0h-12.306a7.694 7.694 0 0 1 -7.694-7.694v-1.306a0 0 0 0 1 0 0z" fill="#3e3d42"/><path d="m57.01 47.76-.15-.04a6.013 6.013 0 0 0 -4.86-4.63v-.61a8.995 8.995 0 0 0 3.94-6.48h1.06a3.009 3.009 0 0 0 3-3v-1a3.009 3.009 0 0 0 -3-3h-1v-4a7 7 0 0 0 -6-6.92v-7.08a1 1 0 0 0 -1-1h-9.42a5.02 5.02 0 0 0 -4.58-3h-2.21a7.153 7.153 0 0 0 -6.79-5h-.02a7.138 7.138 0 0 0 -6.77 5h-2.23a4.983 4.983 0 0 0 -4.55 3h-9.43a1 1 0 0 0 -1 1v50a1 1 0 0 0 1 1h58a1 1 0 0 0 1-1v-6.54a6.966 6.966 0 0 0 -4.99-6.7zm-1.01-16.76h1a1 1 0 0 1 1 1v1a1 1 0 0 1 -1 1h-1zm0 22a1 1 0 1 1 -1 1 1 1 0 0 1 1-1zm-1.59-6.06a3.934 3.934 0 0 1 -1.84-1.62 4.025 4.025 0 0 1 1.84 1.62zm-.41-11.94a7 7 0 0 1 -14 0v-6.43a8.563 8.563 0 0 0 2.69.43h11.31zm-7 12.93-3.93-1.47a5.933 5.933 0 0 0 .91-2.99 8.869 8.869 0 0 0 6.04 0 5.933 5.933 0 0 0 .91 2.99zm1.16 3.19-.66.88h-1l-.66-.88 1.16-.87zm5.84-26.12v2h-11.31a6.7 6.7 0 0 1 -6.69-6.69v-.31h13a5 5 0 0 1 5 5zm-14-13h8v6h-2v-3a1 1 0 0 0 -1-1h-5zm-26 0a3.007 3.007 0 0 1 2.99-3h3.01a1.008 1.008 0 0 0 .99-.83 5.1 5.1 0 0 1 10.02-.01 1 1 0 0 0 .99.84h3a3 3 0 0 1 3 3v3h-24zm18 48h-28v-48h8v2h-5a1 1 0 0 0 -1 1v42a1 1 0 0 0 1 1h25zm0-5.54v1.54h-24v-40h4a1 1 0 0 0 1 1h26a1 1 0 0 0 1-1h4v2h-9a1 1 0 0 0 -1 1v1.31a8.689 8.689 0 0 0 4 7.3v1.39h-1a3.009 3.009 0 0 0 -3 3v1a3.009 3.009 0 0 0 3 3h1.06a8.995 8.995 0 0 0 3.94 6.48v.61a6.013 6.013 0 0 0 -4.86 4.63l-.15.04c-.21.07-.41.16-.61.24h-17.38v2h14.62a6.97 6.97 0 0 0 -1.62 4.46zm6-23.46v3h-1a1 1 0 0 1 -1-1v-1a1 1 0 0 1 1-1zm3.43 14.33a3.968 3.968 0 0 1 -1.84 1.61 4 4 0 0 1 1.84-1.61zm1.79 14.67h-9.22v-5.54a4.941 4.941 0 0 1 3.18-4.63l.59 2.38a4 4 0 0 0 -2.77 3.79v2a1 1 0 0 0 1 1h2v-2h-1v-1a2 2 0 0 1 4 0v1h-1v2h2a1 1 0 0 0 1-1v-2a4.011 4.011 0 0 0 -3.2-3.92l-.71-2.86.31-.09 2.82 3.5a1 1 0 0 0 1.38.17l.64-.48.67.9zm-.05-9.38-1.88-2.33c.11-.08.23-.16.34-.24l3.31 1.24zm2.11 9.38 1.5-6h.44l1.5 6zm7.09-11.95c.11.08.23.16.34.24l-1.88 2.33-1.77-1.33zm7.63 11.95h-9.22l-1.69-6.78.67-.9.64.48a1 1 0 0 0 1.38-.17l2.82-3.5.4.12v1.93a3 3 0 1 0 2 0v-1.28a4.949 4.949 0 0 1 3 4.56z"/><path d="m26 6a3 3 0 1 0 3 3 3 3 0 0 0 -3-3zm0 4a1 1 0 1 1 1-1 1 1 0 0 1 -1 1z"/><path d="m21 28h2v2a1 1 0 0 0 1 1h4a1 1 0 0 0 1-1v-2h2a1 1 0 0 0 1-1v-4a1 1 0 0 0 -1-1h-2v-2a1 1 0 0 0 -1-1h-4a1 1 0 0 0 -1 1v2h-2a1 1 0 0 0 -1 1v4a1 1 0 0 0 1 1zm1-4h2a1 1 0 0 0 1-1v-2h2v2a1 1 0 0 0 1 1h2v2h-2a1 1 0 0 0 -1 1v2h-2v-2a1 1 0 0 0 -1-1h-2z"/><path d="m12 36h4v2h-4z"/><path d="m19 36h18v2h-18z"/><path d="m12 42h4v2h-4z"/><path d="m19 42h18v2h-18z"/><path d="m12 48h4v2h-4z"/><path d="m44 31a1 1 0 0 0 -1 1v1a1 1 0 0 0 2 0v-1a1 1 0 0 0 -1-1z"/><path d="m50 31a1 1 0 0 0 -1 1v1a1 1 0 0 0 2 0v-1a1 1 0 0 0 -1-1z"/></svg>